<mxfile>
    <diagram id="okyHbANt9XHcZrDEkdiz" name="Page-1">
        <mxGraphModel dx="1218" dy="632" grid="1" gridSize="10" guides="1" tooltips="1" connect="1" arrows="1" fold="1" page="1" pageScale="1" pageWidth="850" pageHeight="1100" math="0" shadow="0">
            <root>
                <mxCell id="0"/>
                <mxCell id="1" parent="0"/>
                <mxCell id="4" value="" style="whiteSpace=wrap;html=1;" parent="1" vertex="1">
                    <mxGeometry x="20" y="60" width="800" height="530" as="geometry"/>
                </mxCell>
                <mxCell id="5" value="fpga_top" style="text;html=1;align=center;verticalAlign=middle;resizable=0;points=[];autosize=1;" parent="1" vertex="1">
                    <mxGeometry x="20" y="60" width="60" height="20" as="geometry"/>
                </mxCell>
                <mxCell id="6" value="" style="whiteSpace=wrap;html=1;" parent="1" vertex="1">
                    <mxGeometry x="180" y="120" width="610" height="460" as="geometry"/>
                </mxCell>
                <mxCell id="7" value="modulation_top" style="text;html=1;align=center;verticalAlign=middle;resizable=0;points=[];autosize=1;" parent="1" vertex="1">
                    <mxGeometry x="180" y="120" width="100" height="20" as="geometry"/>
                </mxCell>
                <mxCell id="8" value="FIFO_tx" style="whiteSpace=wrap;html=1;" parent="1" vertex="1">
                    <mxGeometry x="100" y="175" width="60" height="60" as="geometry"/>
                </mxCell>
                <mxCell id="42" style="edgeStyle=orthogonalEdgeStyle;rounded=0;orthogonalLoop=1;jettySize=auto;html=1;exitX=0;exitY=0.5;exitDx=0;exitDy=0;entryX=1;entryY=0.75;entryDx=0;entryDy=0;" parent="1" source="9" target="41" edge="1">
                    <mxGeometry relative="1" as="geometry"/>
                </mxCell>
                <mxCell id="9" value="FIFO_rx" style="whiteSpace=wrap;html=1;" parent="1" vertex="1">
                    <mxGeometry x="100" y="410" width="60" height="60" as="geometry"/>
                </mxCell>
                <mxCell id="18" value="" style="whiteSpace=wrap;html=1;" parent="1" vertex="1">
                    <mxGeometry x="190" y="150" width="450" height="170" as="geometry"/>
                </mxCell>
                <mxCell id="19" value="Modulation" style="text;html=1;align=center;verticalAlign=middle;resizable=0;points=[];autosize=1;" parent="1" vertex="1">
                    <mxGeometry x="190" y="150" width="70" height="20" as="geometry"/>
                </mxCell>
                <mxCell id="36" style="edgeStyle=orthogonalEdgeStyle;rounded=0;orthogonalLoop=1;jettySize=auto;html=1;exitX=1;exitY=0.5;exitDx=0;exitDy=0;entryX=0.5;entryY=1;entryDx=0;entryDy=0;startArrow=none;startFill=0;endArrow=classic;endFill=1;" parent="1" source="20" target="21" edge="1">
                    <mxGeometry relative="1" as="geometry"/>
                </mxCell>
                <mxCell id="20" value="Sine generator" style="whiteSpace=wrap;html=1;" parent="1" vertex="1">
                    <mxGeometry x="290" y="240" width="120" height="50" as="geometry"/>
                </mxCell>
                <mxCell id="21" value="convolution" style="whiteSpace=wrap;html=1;" parent="1" vertex="1">
                    <mxGeometry x="450" y="180" width="70" height="50" as="geometry"/>
                </mxCell>
                <mxCell id="31" style="edgeStyle=orthogonalEdgeStyle;rounded=0;orthogonalLoop=1;jettySize=auto;html=1;exitX=0.5;exitY=1;exitDx=0;exitDy=0;entryX=0.5;entryY=0;entryDx=0;entryDy=0;startArrow=none;startFill=0;endArrow=classic;endFill=1;" parent="1" source="25" target="26" edge="1">
                    <mxGeometry relative="1" as="geometry"/>
                </mxCell>
                <mxCell id="52" value="Analog" style="edgeLabel;html=1;align=center;verticalAlign=middle;resizable=0;points=[];" parent="31" vertex="1" connectable="0">
                    <mxGeometry x="-0.2366" y="-2" relative="1" as="geometry">
                        <mxPoint as="offset"/>
                    </mxGeometry>
                </mxCell>
                <mxCell id="25" value="THDB-ADA&lt;br&gt;DA converter" style="whiteSpace=wrap;html=1;" parent="1" vertex="1">
                    <mxGeometry x="680" y="180" width="80" height="60" as="geometry"/>
                </mxCell>
                <mxCell id="26" value="THDB-ADA&lt;br&gt;AD converter" style="whiteSpace=wrap;html=1;" parent="1" vertex="1">
                    <mxGeometry x="680" y="410" width="80" height="60" as="geometry"/>
                </mxCell>
                <mxCell id="28" value="" style="whiteSpace=wrap;html=1;" parent="1" vertex="1">
                    <mxGeometry x="190" y="380" width="450" height="120" as="geometry"/>
                </mxCell>
                <mxCell id="29" value="DeModulation" style="text;html=1;align=center;verticalAlign=middle;resizable=0;points=[];autosize=1;" parent="1" vertex="1">
                    <mxGeometry x="190" y="380" width="90" height="20" as="geometry"/>
                </mxCell>
                <mxCell id="33" style="edgeStyle=orthogonalEdgeStyle;rounded=0;orthogonalLoop=1;jettySize=auto;html=1;exitX=0;exitY=0.5;exitDx=0;exitDy=0;entryX=1;entryY=0.5;entryDx=0;entryDy=0;startArrow=none;startFill=0;endArrow=classic;endFill=1;" parent="1" source="45" target="9" edge="1">
                    <mxGeometry relative="1" as="geometry"/>
                </mxCell>
                <mxCell id="32" value="DeMapper" style="whiteSpace=wrap;html=1;" parent="1" vertex="1">
                    <mxGeometry x="290" y="410" width="120" height="60" as="geometry"/>
                </mxCell>
                <mxCell id="35" style="edgeStyle=orthogonalEdgeStyle;rounded=0;orthogonalLoop=1;jettySize=auto;html=1;entryX=0;entryY=0.5;entryDx=0;entryDy=0;startArrow=none;startFill=0;endArrow=classic;endFill=1;exitX=1;exitY=0.5;exitDx=0;exitDy=0;" parent="1" source="17" target="21" edge="1">
                    <mxGeometry relative="1" as="geometry">
                        <mxPoint x="400" y="205" as="sourcePoint"/>
                    </mxGeometry>
                </mxCell>
                <mxCell id="49" value="/14" style="edgeLabel;html=1;align=center;verticalAlign=middle;resizable=0;points=[];" parent="35" vertex="1" connectable="0">
                    <mxGeometry x="-0.6444" y="2" relative="1" as="geometry">
                        <mxPoint x="5.829999999999995" y="2" as="offset"/>
                    </mxGeometry>
                </mxCell>
                <mxCell id="68" value="/14" style="edgeStyle=orthogonalEdgeStyle;rounded=0;orthogonalLoop=1;jettySize=auto;html=1;exitX=0;exitY=0.5;exitDx=0;exitDy=0;entryX=1;entryY=0.5;entryDx=0;entryDy=0;" parent="1" source="40" target="32" edge="1">
                    <mxGeometry x="-0.3333" relative="1" as="geometry">
                        <mxPoint as="offset"/>
                    </mxGeometry>
                </mxCell>
                <mxCell id="40" value="convolution" style="whiteSpace=wrap;html=1;" parent="1" vertex="1">
                    <mxGeometry x="440" y="415" width="70" height="50" as="geometry"/>
                </mxCell>
                <mxCell id="41" value="Framing" style="whiteSpace=wrap;html=1;" parent="1" vertex="1">
                    <mxGeometry x="30" y="110" width="50" height="440" as="geometry"/>
                </mxCell>
                <mxCell id="43" value="" style="endArrow=classic;html=1;exitX=0.993;exitY=0.211;exitDx=0;exitDy=0;exitPerimeter=0;entryX=0.014;entryY=0.458;entryDx=0;entryDy=0;entryPerimeter=0;" parent="1" source="41" target="8" edge="1">
                    <mxGeometry width="50" height="50" relative="1" as="geometry">
                        <mxPoint x="360" y="390" as="sourcePoint"/>
                        <mxPoint x="410" y="340" as="targetPoint"/>
                    </mxGeometry>
                </mxCell>
                <mxCell id="47" value="/2" style="edgeStyle=orthogonalEdgeStyle;rounded=0;orthogonalLoop=1;jettySize=auto;html=1;exitX=1;exitY=0.5;exitDx=0;exitDy=0;entryX=0;entryY=0.5;entryDx=0;entryDy=0;" parent="1" source="44" target="17" edge="1">
                    <mxGeometry x="-0.3333" relative="1" as="geometry">
                        <mxPoint as="offset"/>
                    </mxGeometry>
                </mxCell>
                <mxCell id="44" value="Buffer" style="whiteSpace=wrap;html=1;" parent="1" vertex="1">
                    <mxGeometry x="200" y="175" width="50" height="60" as="geometry"/>
                </mxCell>
                <mxCell id="45" value="Buffer" style="whiteSpace=wrap;html=1;" parent="1" vertex="1">
                    <mxGeometry x="205" y="410" width="50" height="60" as="geometry"/>
                </mxCell>
                <mxCell id="46" value="/2" style="edgeStyle=orthogonalEdgeStyle;rounded=0;orthogonalLoop=1;jettySize=auto;html=1;exitX=0;exitY=0.5;exitDx=0;exitDy=0;entryX=1;entryY=0.5;entryDx=0;entryDy=0;startArrow=none;startFill=0;endArrow=classic;endFill=1;" parent="1" source="32" target="45" edge="1">
                    <mxGeometry x="-0.4286" relative="1" as="geometry">
                        <mxPoint x="280" y="440" as="sourcePoint"/>
                        <mxPoint x="160" y="440" as="targetPoint"/>
                        <mxPoint as="offset"/>
                    </mxGeometry>
                </mxCell>
                <mxCell id="38" value="" style="edgeStyle=orthogonalEdgeStyle;rounded=0;orthogonalLoop=1;jettySize=auto;html=1;exitX=0;exitY=0.5;exitDx=0;exitDy=0;entryX=1;entryY=0.5;entryDx=0;entryDy=0;startArrow=none;startFill=0;endArrow=classic;endFill=1;" parent="1" source="61" target="40" edge="1">
                    <mxGeometry x="0.5556" relative="1" as="geometry">
                        <Array as="points">
                            <mxPoint x="610" y="440"/>
                        </Array>
                        <mxPoint as="offset"/>
                    </mxGeometry>
                </mxCell>
                <mxCell id="54" value="/14" style="edgeLabel;html=1;align=center;verticalAlign=middle;resizable=0;points=[];" parent="38" vertex="1" connectable="0">
                    <mxGeometry x="-0.3111" y="-1" relative="1" as="geometry">
                        <mxPoint as="offset"/>
                    </mxGeometry>
                </mxCell>
                <mxCell id="67" value="/14" style="edgeLabel;html=1;align=center;verticalAlign=middle;resizable=0;points=[];" parent="38" vertex="1" connectable="0">
                    <mxGeometry x="0.6222" y="-1" relative="1" as="geometry">
                        <mxPoint x="1.4299999999999997" as="offset"/>
                    </mxGeometry>
                </mxCell>
                <mxCell id="17" value="Mapper" style="whiteSpace=wrap;html=1;" parent="1" vertex="1">
                    <mxGeometry x="290" y="175" width="120" height="60" as="geometry"/>
                </mxCell>
                <mxCell id="58" style="edgeStyle=orthogonalEdgeStyle;rounded=0;orthogonalLoop=1;jettySize=auto;html=1;exitX=1;exitY=0.5;exitDx=0;exitDy=0;entryX=-0.007;entryY=0.43;entryDx=0;entryDy=0;entryPerimeter=0;" parent="1" source="21" target="25" edge="1">
                    <mxGeometry relative="1" as="geometry">
                        <mxPoint x="520" y="205" as="sourcePoint"/>
                        <mxPoint x="560" y="205" as="targetPoint"/>
                    </mxGeometry>
                </mxCell>
                <mxCell id="61" value="Synchronizer" style="whiteSpace=wrap;html=1;" parent="1" vertex="1">
                    <mxGeometry x="560" y="415" width="70" height="50" as="geometry"/>
                </mxCell>
                <mxCell id="62" value="" style="edgeStyle=orthogonalEdgeStyle;rounded=0;orthogonalLoop=1;jettySize=auto;html=1;exitX=0;exitY=0.5;exitDx=0;exitDy=0;startArrow=none;startFill=0;endArrow=classic;endFill=1;entryX=1;entryY=0.5;entryDx=0;entryDy=0;" parent="1" edge="1">
                    <mxGeometry x="0.5556" relative="1" as="geometry">
                        <mxPoint x="680" y="439.83" as="sourcePoint"/>
                        <mxPoint x="630" y="439.83" as="targetPoint"/>
                        <Array as="points">
                            <mxPoint x="640" y="439.83"/>
                            <mxPoint x="640" y="439.83"/>
                        </Array>
                        <mxPoint as="offset"/>
                    </mxGeometry>
                </mxCell>
                <mxCell id="63" value="/14" style="edgeLabel;html=1;align=center;verticalAlign=middle;resizable=0;points=[];" parent="62" vertex="1" connectable="0">
                    <mxGeometry x="-0.3111" y="-1" relative="1" as="geometry">
                        <mxPoint as="offset"/>
                    </mxGeometry>
                </mxCell>
                <mxCell id="65" value="/14" style="edgeLabel;html=1;align=center;verticalAlign=middle;resizable=0;points=[];" parent="1" vertex="1" connectable="0">
                    <mxGeometry x="590" y="205.00000000000006" as="geometry"/>
                </mxCell>
                <mxCell id="69" style="edgeStyle=orthogonalEdgeStyle;rounded=0;orthogonalLoop=1;jettySize=auto;html=1;exitX=1;exitY=0.5;exitDx=0;exitDy=0;entryX=0;entryY=0.5;entryDx=0;entryDy=0;" parent="1" source="8" target="44" edge="1">
                    <mxGeometry relative="1" as="geometry"/>
                </mxCell>
            </root>
        </mxGraphModel>
    </diagram>
</mxfile>